/* XPM */
static char *fa6feced2e43472cfdc8d1257df92ac7bZk0DpVXZ0R5K1aQ[] = {
/* columns rows colors chars-per-pixel */
"12 15 8 1 ",
"  c None",
". c #4C468B",
"X c #555793",
"o c #5F699C",
"O c #7180B1",
"+ c #8599C7",
"@ c #DCE0D2",
"# c #F3F4E7",
/* pixels */
"   ######   ",
"  #XXXXX.#  ",
" #X++++OO.# ",
"  #......#  ",
" #+#####@+# ",
" #+#####@+# ",
" #+#####@+# ",
"#+######@@O#",
"#+######@@O#",
"#O######@@o#",
"#O######@@o#",
"#O#####@@@o#",
"#o##@@@@@@o#",
" #oooooooo# ",
"  ########  "
};
