/* XPM */
static char *_af5a7a2525b4211fa26533b95941452BIiVgSwFWFOWw6qJ[] = {
/* columns rows colors chars-per-pixel */
"22 14 10 1 ",
"  c #C0D470",
". c #90625D",
"X c #AA7959",
"o c #B09643",
"O c #BFA954",
"+ c #C49A6C",
"@ c #D4C169",
"# c #EAE178",
"$ c #DCB98A",
"% c #F4F4A0",
/* pixels */
"        ..        ..  ",
"       .@@........@@. ",
"      .###+$$$$$$+###.",
"      .##+++$$$$+++##.",
"      .##++++++++++##.",
"      .##++++++++++##.",
"      .%############%.",
"      .o%%%%%%%%%%%%o.",
"      .Oo....#@....oO.",
"      .OOXXXX@@XXXXOO.",
"      .@OXXXXXXXXXXO@.",
"      .@@XXXXXXXXXX@@.",
"       .@@@@@@@@@@@@. ",
"        ............  "
};
