/* XPM */
static char *_409aed928fa49e3833dbc324beda660WS1xc80l3TwaflaU[] = {
/* columns rows colors chars-per-pixel */
"27 18 7 1 ",
"  c #C0D470",
". c #754C60",
"X c #90625D",
"o c #D99A9A",
"O c #DCB98A",
"+ c #E8B5AC",
"@ c #F3E5C2",
/* pixels */
"             X@X  X@X      ",
"          XX X@XXXX@X  XX  ",
"         X@@XXOOOOO@@XX@@XX",
"     XXXXX@@@@OOOOO@@@X@@XX",
"   XXOOO@X++@OOO.O@@.@X++XX",
"  XOOOOO@@XXXOOO.@@@.@@XX  ",
"  XOOOO@@@@@@@@@@@@@@@@X   ",
" XXOO@@@@@@@@@@@@++++++X   ",
"XOX@@@@@@OO@@X@@++o++o+X   ",
"OXX@@@@@OOOO@@X@+++++++X   ",
"X X@@@@@@OO@@@@XXXXXXXX    ",
"  XOOOO@@@@@@@OOOX         ",
"  XOOOOOOOOOOOOOOX         ",
"   XOOXXXXOOXXXOOX         ",
"   XOOX  XOOX XOOX         ",
"    XX    XX   XX          ",
"                           ",
"                           "
};
