/* XPM */
static char *f6c4bec4189043958b625b52c5cbed3ewNKnEXlOlCnx2RM7[] = {
/* columns rows colors chars-per-pixel */
"32 32 4 1 ",
"  c #A4C263",
". c #C0D470",
"X c #D2E077",
"o c #EAE178",
/* pixels */
"................................",
"................................",
"......     .....................",
"....        ........oo..........",
"...         .......oooo.........",
"...         ........oo....oo....",
"....       ..............oooo...",
"..........................oo....",
"..........   ...................",
"..    ...     ..................",
".      ..     ........oo........",
".      ...   ........oooo.......",
"..    ................oo........",
"................................",
"................................",
"................................",
"................................",
"................................",
"................................",
"......XXXXX.....................",
".....XXXXXXXX...................",
".....XXXXXXXXX.......oo.........",
".....XXXXXXXXX......oooo........",
"......XXXXXXX........oo.........",
"................................",
"...XXXX.........................",
"..XXXXXX................oo......",
"..XXXXXX...............oooo.....",
"...XXXX.................oo......",
"................................",
"................................",
"................................"
};
