/* XPM */
static char *_412c09562804acb8ed776fd5736ec22w7oe186QSmnL5XgS[] = {
/* columns rows colors chars-per-pixel */
"32 32 4 1 ",
"  c #A4C263",
". c #C0D470",
"X c #D2E077",
"o c #E8EEAA",
/* pixels */
"................................",
"................................",
".. . ...........................",
"... ...............    .........",
"..................       .......",
"..................        ......",
"..................        ......",
"..................        ......",
"...................      .......",
".......... . ...................",
"........... .............    ...",
"........................      ..",
"........................      ..",
".... . ..................    ...",
"..... ..........................",
"................................",
"................................",
"................................",
"................................",
"...................XXXXX........",
"..................XXXXXXX.......",
"......o.o.........XXXXXXX.......",
".......o...........XXXXX........",
"................................",
".........................XXXX...",
".......................XXXXXXX..",
".......................XXXXXXX..",
"..................XXX...XXXXX...",
".................XXXXX..........",
".................XXXXX..........",
"..................XXX...........",
"................................"
};
