/* XPM */
static char *_2b6fefd8461417de78a44356180d231uP8aM7uJAJJNYD4G[] = {
/* columns rows colors chars-per-pixel */
"12 15 10 1 ",
"  c None",
". c #4C468B",
"X c #555793",
"o c #5F699C",
"O c #7180B1",
"+ c #8599C7",
"@ c #B4C8C6",
"# c #CBE0DE",
"$ c #DCE0D2",
"% c #F3F4E7",
/* pixels */
"   %%%%%%   ",
"  %XXXXX.%  ",
" %X++++OO.% ",
"  %......%  ",
" %+#%###@+% ",
" %+%####@+% ",
" %+#####@+% ",
"%+%%%%%%$$O%",
"%+%%%%%%$$O%",
"%O%%%%%%$$o%",
"%O%%%%%%$$o%",
"%O%%%%%$$$o%",
"%o%%$$$$$$o%",
" %oooooooo% ",
"  %%%%%%%%  "
};
