/* XPM */
static char *a5a0c319dbfe4898d1ebac5a99aa419dh5pfsd9XOP7p8rdZ[] = {
/* columns rows colors chars-per-pixel */
"12 15 9 1 ",
"  c None",
". c #4C468B",
"X c #555793",
"o c #5F699C",
"O c #7180B1",
"+ c #8599C7",
"@ c #B6CAD4",
"# c #CBE0DE",
"$ c #F3F4E7",
/* pixels */
"   $$$$$$   ",
"  $XXXXX.$  ",
" $X++++OO.$ ",
"  $......$  ",
" $+#$###@+$ ",
" $+$####@+$ ",
" $+#####@+$ ",
"$+######@@O$",
"$+######@@O$",
"$O######@@o$",
"$O######@@o$",
"$O#####@@@o$",
"$o##@@@@@@o$",
" $oooooooo$ ",
"  $$$$$$$$  "
};
